<?xml version="1.0" encoding="UTF-8" standalone="no"?>
<svg
   xmlns:dc="http://purl.org/dc/elements/1.1/"
   xmlns:cc="http://creativecommons.org/ns#"
   xmlns:rdf="http://www.w3.org/1999/02/22-rdf-syntax-ns#"
   xmlns:svg="http://www.w3.org/2000/svg"
   xmlns="http://www.w3.org/2000/svg"
   xmlns:sodipodi="http://sodipodi.sourceforge.net/DTD/sodipodi-0.dtd"
   xmlns:inkscape="http://www.inkscape.org/namespaces/inkscape"
   version="1.1"
   id="svg2"
   width="1003.102"
   height="1003.102"
   viewBox="0 0 1003.102 1003.102">
  <g
     inkscape:groupmode="layer"
     inkscape:label="Image"
     id="g10">
    <g
       id="g28"
       transform="translate(0.22819856,0.51043838)">
      <path
         style="fill:#cf9f9f;stroke-width:1.95918"
         d="M 249.37982,934.04818 C 248.34157,932.69717 191.70367,834.80257 123.51783,716.50461 L -0.45640737,501.41744 21.223701,463.76993 C 33.14776,443.06381 89.534363,345.45305 146.52726,246.85713 L 250.15072,67.591834 h 251.52643 251.52642 l 124.9168,216.489786 c 68.70424,119.06938 124.93073,216.9306 124.94773,217.46938 0.018,0.53878 -56.2717,98.4 -125.08611,217.46938 l -125.11711,216.48979 -250.79865,0.4972 c -199.20223,0.39489 -251.18703,-0.008 -252.68641,-1.95919 z"
         id="path42" />
      <path
         style="fill:#bf8080;stroke-width:1.95918"
         d="M 125.67964,718.88555 0.1438259,501.28132 125.74752,283.94679 251.35121,66.612242 H 501.64898 751.94675 L 877.44827,284.13932 1002.9498,501.66642 877.31099,719.07808 751.67219,936.48976 H 501.44381 251.21545 Z"
         id="path40" />
      <path
         style="fill:#af5f5f;stroke-width:1.95918"
         d="m 248.03864,930.12982 c -1.5603,-2.42857 -57.89994,-99.90336 -125.1992,-216.61065 L 0.47714927,501.32411 54.458956,407.88653 C 84.148949,356.49587 140.29158,259.34693 179.22036,191.99999 L 249.99996,69.551018 501.65301,69.143245 753.30609,68.735472 877.96552,285.19771 1002.6249,501.65995 877.84267,717.60546 753.06043,933.55098 l -251.09244,0.4972 -251.09243,0.49723 z"
         id="path38" />
      <path
         style="fill:#a03f3f;stroke-width:1.95918"
         d="M 243.25182,921.31349 C 145.24008,753.00024 1.9324361,501.93063 2.5782257,499.66237 3.049452,498.00723 59.014595,400.55509 126.94521,283.10203 L 250.45543,69.551018 h 251.21829 251.2183 L 877.14689,284.95013 c 68.38487,118.54698 123.85561,216.77044 123.36701,218.44897 -0.4883,1.67741 -56.47794,99.14781 -124.42136,216.60087 l -123.53352,213.55101 -250.80101,0.4972 -250.80101,0.49723 z"
         id="path36"
         inkscape:export-xdpi="95.659607"
         inkscape:export-ydpi="95.659607" />
      <path
         style="fill:#933a3a;stroke-width:1.95918"
         d="M 471.55776,852.07016 C 374.67817,844.07703 283.11463,794.12288 223.16712,716.55616 115.14578,576.7862 127.69305,377.88222 252.398,253.17726 366.17782,139.39745 541.78513,116.98273 680.37858,198.54933 c 198.01243,116.53653 232.03667,390.12374 68.7241,552.60724 -59.06515,58.76532 -136.63411,94.2372 -220.89742,101.01525 -27.56608,2.21739 -28.56149,2.21561 -56.6475,-0.10168 z m 76.13011,-70.37232 c 117.00846,-20.0036 206.11319,-105.72308 232.39368,-223.56464 3.84494,-17.24068 4.53555,-25.85607 4.53555,-56.5822 0,-30.72613 -0.69061,-39.34152 -4.53555,-56.5822 C 754.68916,331.10943 671.87611,248.14679 558.36732,222.85402 c -25.34887,-5.64839 -84.63861,-6.08777 -109.71428,-0.81306 -24.88388,5.23437 -51.58642,14.36452 -72.89111,24.92295 -79.98823,39.64155 -134.87609,111.61435 -153.81207,201.68913 -4.98975,23.73528 -4.85312,82.14916 0.24977,106.77551 18.17503,87.71233 73.50011,160.43893 152.00444,199.81472 28.70492,14.39767 66.74019,25.89888 95.99999,29.02878 21.08609,2.25555 56.02188,1.09489 77.48381,-2.57421 z"
         id="path34" />
      <path
         style="fill:#5d2424;stroke-width:1.95918"
         d="M 444.25283,848.44673 C 298.95578,823.16846 185.91833,713.33393 156.55921,568.90493 150.51232,539.1579 149.11005,481.41014 153.70443,451.34 c 8.50725,-55.67984 29.6617,-108.59723 61.38137,-153.54409 16.81947,-23.83324 58.65202,-65.70771 82.71011,-82.79301 37.14257,-26.37745 87.47374,-48.16976 135.26501,-58.56683 17.98793,-3.9133 26.11235,-4.4663 66.5309,-4.5285 51.75068,-0.0796 70.98547,2.6301 111.34783,15.68631 27.21323,8.80279 70.95443,30.8433 94.195,47.46339 73.03736,52.23142 123.49367,130.68013 141.63189,220.20712 3.90096,19.25453 4.49873,28.06227 4.49873,66.28661 0,38.22434 -0.59777,47.03208 -4.49873,66.28661 -28.56753,141.00426 -133.25623,246.92286 -274.68493,277.91195 -31.37795,6.87537 -95.97825,8.23843 -127.82878,2.69717 z m 100.40021,-65.66388 c 122.92533,-18.66888 219.22093,-115.2794 238.33,-239.1094 3.73869,-24.2274 2.52919,-76.85074 -2.27402,-98.93877 C 758.92184,344.54442 687.41638,263.59091 592.9495,232.16639 557.978,220.53307 544.09171,218.44897 501.551,218.44897 c -42.99266,0 -59.20165,2.46534 -92.89585,14.12914 -82.90884,28.70026 -149.12949,95.32827 -176.48876,177.57439 -11.63332,34.9715 -13.71742,48.85779 -13.71742,91.3985 0,42.54071 2.0841,56.427 13.71742,91.3985 32.74873,98.44768 119.47587,172.08566 223.3438,189.63598 21.10838,3.56666 66.29902,3.66669 89.14285,0.19737 z"
         id="path32" />
      <path
         style="fill:#000000;stroke-width:1.95918"
         d="m 469.22447,850.86671 c -19.05641,-1.74947 -54.06888,-9.08598 -74.15451,-15.5383 -172.2574,-55.3361 -274.04537,-231.35548 -236.04199,-408.18144 13.83824,-64.38796 46.95722,-125.37083 93.54949,-172.25521 138.44957,-139.31759 363.19502,-138.20006 500.39606,2.48817 47.92006,49.13803 80.53267,112.68469 93.73651,182.64851 6.25421,33.1394 6.24441,89.44481 -0.0213,122.94238 -29.04208,155.26165 -153.80346,270.80609 -310.1959,287.27971 -17.48395,1.84167 -50.61398,2.14515 -67.26827,0.61618 z m 81.98782,-68.2345 c 103.35918,-18.34356 189.41875,-93.37381 221.72584,-193.30963 10.18558,-31.50714 13.42009,-52.66189 13.42009,-87.77158 0,-46.63744 -8.26687,-83.11219 -28.19664,-124.40816 C 699.71143,256.02993 562.7769,191.76283 432.97957,224.52608 330.68492,250.34716 251.41925,328.76396 225.3287,429.95318 c -36.23831,140.54623 38.62733,286.0336 174.02072,338.17674 19.05767,7.33955 49.67017,14.94369 69.87505,17.35696 20.32641,2.42778 60.00827,1.04612 81.98782,-2.85467 z"
         id="path30" />
    </g>
  </g>
</svg>
