<?xml version="1.0" encoding="UTF-8" standalone="no"?>
<svg
   xmlns:dc="http://purl.org/dc/elements/1.1/"
   xmlns:cc="http://creativecommons.org/ns#"
   xmlns:rdf="http://www.w3.org/1999/02/22-rdf-syntax-ns#"
   xmlns:svg="http://www.w3.org/2000/svg"
   xmlns="http://www.w3.org/2000/svg"
   height="1000"
   version="1.1"
   width="1000"
   id="svg893"
   viewBox="0 0 1000 1000">
  <g
     transform="translate(0,-1028.4)"
     id="g891">
    <path
       d="m 71.428569,1076.019 v 476.1905 c 0,200 172.961901,380.9524 428.571431,476.1905 255.61905,-95.2381 428.57143,-276.1905 428.57143,-476.1905 V 1076.019 Z"
       fill="#7f8c8d"
       id="path877"
       style="fill:#bfbf4d;fill-opacity:1;stroke-width:47.619" />
    <path
       d="m 71.428569,1028.4 v 476.1905 c 0,200 172.961901,380.9524 428.571431,476.1905 255.61905,-95.2381 428.57143,-276.1905 428.57143,-476.1905 V 1028.4 Z"
       fill="#bdc3c7"
       id="path879"
       style="fill:#dfdfa5;fill-opacity:1;stroke-width:47.619" />
    <path
       d="m 71.428569,1028.4 v 476.1905 c 0,200 172.961901,380.9524 428.571431,476.1905 V 1028.4 Z"
       fill="#95a5a6"
       id="path881"
       style="fill:#cbcb70;fill-opacity:1;stroke-width:47.619" />
    <path
       d="m 166.66666,1123.6381 v 380.9524 c 0,161.9047 134.52858,304.7619 333.33334,380.9524 198.80952,-76.1905 333.33333,-219.0477 333.33333,-380.9524 v -380.9524 z"
       fill="#ecf0f1"
       id="path883"
       style="fill:#f6f6e7;fill-opacity:1;stroke-width:47.619" />
    <path
       d="m 166.66666,1504.5905 c 0,161.9047 134.52858,304.7619 333.33334,380.9524 v -380.9524 z"
       fill="#2980b9"
       id="path885"
       style="fill:#29bd29;fill-opacity:1;stroke-width:47.619" />
    <rect
       fill="#3498db"
       height="380.95239"
       width="333.33334"
       x="500"
       y="1123.6381"
       id="rect887"
       style="fill:#2bd92b;fill-opacity:1;stroke-width:47.619" />
    <rect
       fill="#bdc3c7"
       height="380.95239"
       width="333.33334"
       x="166.66667"
       y="1123.6381"
       id="rect889"
       style="fill:#dfdfa5;fill-opacity:1;stroke-width:47.619" />
  </g>
</svg>
