<?xml version="1.0" standalone="no"?>
<!DOCTYPE svg PUBLIC "-//W3C//DTD SVG 20010904//EN"
 "http://www.w3.org/TR/2001/REC-SVG-20010904/DTD/svg10.dtd">
<svg version="1.0" xmlns="http://www.w3.org/2000/svg"
 width="700.000000pt" height="700.000000pt" viewBox="0 0 700.000000 700.000000"
 preserveAspectRatio="xMidYMid meet">
<g transform="translate(0.000000,700.000000) scale(0.100000,-0.100000)"
fill="#000000" stroke="none">
<path d="M1708 6458 c-23 -40 -47 -81 -53 -90 -5 -9 -22 -39 -36 -65 -15 -26
-40 -70 -57 -98 -17 -27 -39 -66 -48 -85 -10 -19 -29 -53 -43 -75 -14 -22 -30
-49 -36 -60 -7 -11 -123 -213 -260 -450 -137 -236 -286 -495 -332 -574 -46
-79 -83 -148 -83 -153 0 -4 -4 -8 -10 -8 -5 0 -10 -4 -10 -10 0 -5 -13 -31
-29 -58 -15 -26 -39 -68 -53 -93 -14 -24 -72 -125 -130 -224 -155 -267 -446
-770 -490 -847 l-38 -67 51 -88 c28 -48 61 -106 74 -128 12 -22 114 -197 225
-390 112 -192 220 -379 240 -415 20 -36 78 -137 130 -225 51 -88 106 -185 123
-215 17 -30 48 -83 69 -118 21 -34 38 -64 38 -66 0 -2 36 -65 80 -140 44 -75
80 -141 80 -146 0 -6 5 -10 10 -10 6 0 10 -4 10 -9 0 -5 82 -150 181 -322 197
-341 211 -364 244 -424 13 -22 61 -105 107 -185 l84 -145 1751 -3 1751 -2 20
32 c11 18 29 49 40 68 24 44 121 210 156 270 15 25 29 53 33 63 3 9 9 17 14
17 5 0 9 5 9 11 0 6 46 90 103 187 133 227 293 504 325 562 14 25 33 57 43 72
11 14 19 28 19 31 0 3 36 65 79 140 43 74 90 154 104 178 13 24 48 85 77 134
29 50 62 108 75 130 52 91 456 791 464 805 13 20 163 279 178 308 11 20 7 31
-32 98 -25 42 -45 77 -45 80 0 2 -13 25 -29 51 -26 42 -318 548 -389 672 -14
25 -38 68 -55 95 -16 28 -37 65 -47 81 -51 89 -145 254 -160 280 -9 17 -84
145 -165 285 -81 140 -156 270 -166 288 -22 38 -52 89 -78 135 -18 32 -276
479 -465 807 l-101 175 -1752 3 -1752 2 -43 -72z"/>
</g>
</svg>
